M48
;DRILL file {KiCad 4.0.0-rc1-stable} date dom 11 oct 2015 19:35:00 CEST
;FORMAT={-:-/ absolute / metric / decimal}
FMAT,2
METRIC,TZ
T1C0.600
T2C0.650
T3C0.800
T4C1.000
T5C1.001
T6C1.300
T7C2.400
%
G90
G05
M71
T1
X136.652Y-88.9
X136.652Y-96.52
X139.192Y-88.9
X139.192Y-96.52
X141.732Y-88.9
X141.732Y-96.52
X144.018Y-61.468
X144.018Y-64.008
X144.018Y-66.548
X144.018Y-69.088
X144.018Y-71.628
X144.018Y-74.168
X144.018Y-76.708
X144.018Y-79.248
X144.018Y-81.788
X144.018Y-84.328
X144.272Y-88.9
X144.272Y-96.52
X146.812Y-88.9
X146.812Y-96.52
X151.638Y-61.468
X151.638Y-64.008
X151.638Y-66.548
X151.638Y-69.088
X151.638Y-71.628
X151.638Y-74.168
X151.638Y-76.708
X151.638Y-79.248
X151.638Y-81.788
X151.638Y-84.328
T2
X128.016Y-61.468
X128.016Y-64.516
X128.016Y-67.564
X128.016Y-70.612
X128.016Y-73.66
X128.016Y-76.708
X128.016Y-79.756
X128.016Y-82.804
X135.636Y-61.468
X135.636Y-64.516
X135.636Y-67.564
X135.636Y-70.612
X135.636Y-73.66
X135.636Y-76.708
X135.636Y-79.756
X135.636Y-82.804
X156.718Y-43.688
X159.004Y-69.088
X159.004Y-76.708
X160.02Y-89.408
X160.02Y-97.028
X162.052Y-69.088
X162.052Y-76.708
X162.814Y-89.408
X162.814Y-97.028
X164.338Y-43.688
X169.672Y-69.088
X169.672Y-76.708
X190.754Y-70.104
X190.754Y-77.724
X194.056Y-57.912
X194.056Y-65.532
X194.056Y-70.104
X194.056Y-77.724
T3
X112.364Y-61.468
X112.364Y-64.516
X112.364Y-67.564
X112.364Y-70.612
X112.364Y-73.66
X112.364Y-76.708
X112.364Y-79.756
X112.364Y-82.804
X124.364Y-61.468
X124.364Y-64.516
X124.364Y-67.564
X124.364Y-70.612
X124.364Y-73.66
X124.364Y-76.708
X124.364Y-79.756
X124.364Y-82.804
X151.638Y-87.218
X151.638Y-99.218
X155.956Y-52.166
X155.956Y-64.166
X156.464Y-87.218
X156.464Y-99.218
X159.512Y-52.166
X159.512Y-64.166
X165.1Y-52.166
X165.1Y-64.166
X168.148Y-52.166
X168.148Y-64.166
X190.754Y-55.468
X190.754Y-67.468
T4
X182.118Y-71.374
X182.118Y-73.914
X182.118Y-76.454
T5
X133.604Y-43.434
X135.603Y-43.434
X137.605Y-43.434
X139.603Y-43.434
T6
X202.184Y-70.165
X202.184Y-77.663
T7
X177.768Y-61.214
X177.768Y-86.614
T0
M30
