G04 #@! TF.FileFunction,Soldermask,Bot*
%FSLAX46Y46*%
G04 Gerber Fmt 4.6, Leading zero omitted, Abs format (unit mm)*
G04 Created by KiCad (PCBNEW 4.0.0-rc1-stable) date dom 11 oct 2015 19:35:07 CEST*
%MOMM*%
G01*
G04 APERTURE LIST*
%ADD10C,0.100000*%
%ADD11C,0.150000*%
%ADD12R,1.822400X1.822400*%
%ADD13C,1.822400*%
%ADD14C,1.300000*%
%ADD15R,1.300000X1.300000*%
%ADD16C,2.500580*%
%ADD17C,2.000000*%
%ADD18C,1.804620*%
%ADD19C,2.051000*%
%ADD20R,1.900000X1.900000*%
%ADD21C,1.900000*%
%ADD22C,4.400000*%
G04 APERTURE END LIST*
D10*
D11*
X100000000Y-30000000D02*
X220000000Y-30000000D01*
X100000000Y-110000000D02*
X100000000Y-30000000D01*
X220000000Y-110000000D02*
X100000000Y-110000000D01*
X220000000Y-30000000D02*
X220000000Y-110000000D01*
D12*
X190754000Y-77724000D03*
D13*
X190754000Y-70104000D03*
D12*
X194056000Y-77724000D03*
D13*
X194056000Y-70104000D03*
D12*
X160020000Y-89408000D03*
D13*
X160020000Y-97028000D03*
D12*
X194056000Y-65532000D03*
D13*
X194056000Y-57912000D03*
D12*
X156718000Y-43688000D03*
D13*
X164338000Y-43688000D03*
D14*
X144018000Y-84328000D03*
X144018000Y-81788000D03*
X144018000Y-79248000D03*
X144018000Y-76708000D03*
X144018000Y-74168000D03*
X144018000Y-71628000D03*
X144018000Y-66548000D03*
X144018000Y-69088000D03*
D15*
X151638000Y-84328000D03*
D14*
X151638000Y-81788000D03*
X151638000Y-79248000D03*
X151638000Y-76708000D03*
X151638000Y-74168000D03*
X151638000Y-71628000D03*
X151638000Y-69088000D03*
X151638000Y-66548000D03*
X151638000Y-61468000D03*
X151638000Y-64008000D03*
X144018000Y-61468000D03*
X144018000Y-64008000D03*
D16*
X202184000Y-70164960D03*
X202184000Y-77663040D03*
D17*
X124364000Y-61468000D03*
X112364000Y-61468000D03*
X124364000Y-64516000D03*
X112364000Y-64516000D03*
X124364000Y-67564000D03*
X112364000Y-67564000D03*
X124364000Y-70612000D03*
X112364000Y-70612000D03*
X124364000Y-73660000D03*
X112364000Y-73660000D03*
X124364000Y-76708000D03*
X112364000Y-76708000D03*
X124364000Y-79756000D03*
X112364000Y-79756000D03*
X124364000Y-82804000D03*
X112364000Y-82804000D03*
X168148000Y-64166000D03*
X168148000Y-52166000D03*
X155956000Y-64166000D03*
X155956000Y-52166000D03*
X159512000Y-64166000D03*
X159512000Y-52166000D03*
X165100000Y-64166000D03*
X165100000Y-52166000D03*
X156464000Y-87218000D03*
X156464000Y-99218000D03*
X190754000Y-55468000D03*
X190754000Y-67468000D03*
X151638000Y-99218000D03*
X151638000Y-87218000D03*
D18*
X139872720Y-46154340D03*
X132334000Y-46154340D03*
X132334000Y-40713660D03*
X139872720Y-40713660D03*
D19*
X139603480Y-43434000D03*
X137604500Y-43434000D03*
X135602980Y-43434000D03*
X133604000Y-43434000D03*
D20*
X182118000Y-76454000D03*
D21*
X182118000Y-73914000D03*
X182118000Y-71374000D03*
D22*
X177768000Y-61214000D03*
X177768000Y-86614000D03*
D14*
X146812000Y-96520000D03*
X144272000Y-96520000D03*
X141732000Y-96520000D03*
X139192000Y-96520000D03*
X136652000Y-96520000D03*
D15*
X146812000Y-88900000D03*
D14*
X144272000Y-88900000D03*
X141732000Y-88900000D03*
X139192000Y-88900000D03*
X136652000Y-88900000D03*
D12*
X135636000Y-61468000D03*
D13*
X128016000Y-61468000D03*
D12*
X135636000Y-64516000D03*
D13*
X128016000Y-64516000D03*
D12*
X135636000Y-67564000D03*
D13*
X128016000Y-67564000D03*
D12*
X135636000Y-70612000D03*
D13*
X128016000Y-70612000D03*
D12*
X135636000Y-73660000D03*
D13*
X128016000Y-73660000D03*
D12*
X135636000Y-76708000D03*
D13*
X128016000Y-76708000D03*
D12*
X135636000Y-79756000D03*
D13*
X128016000Y-79756000D03*
D12*
X135636000Y-82804000D03*
D13*
X128016000Y-82804000D03*
D12*
X169672000Y-69088000D03*
D13*
X162052000Y-69088000D03*
D12*
X169672000Y-76708000D03*
D13*
X162052000Y-76708000D03*
D12*
X162814000Y-97028000D03*
D13*
X162814000Y-89408000D03*
D12*
X159004000Y-69088000D03*
D13*
X159004000Y-76708000D03*
M02*
