G04 #@! TF.FileFunction,Legend,Top*
%FSLAX46Y46*%
G04 Gerber Fmt 4.6, Leading zero omitted, Abs format (unit mm)*
G04 Created by KiCad (PCBNEW 4.0.0-rc1-stable) date dom 11 oct 2015 19:36:51 CEST*
%MOMM*%
G01*
G04 APERTURE LIST*
%ADD10C,0.100000*%
%ADD11C,0.150000*%
%ADD12C,0.300000*%
%ADD13C,0.299720*%
%ADD14C,0.090000*%
%ADD15C,0.088900*%
G04 APERTURE END LIST*
D10*
D11*
X100000000Y-30000000D02*
X220000000Y-30000000D01*
X100000000Y-110000000D02*
X100000000Y-30000000D01*
X220000000Y-110000000D02*
X100000000Y-110000000D01*
X220000000Y-30000000D02*
X220000000Y-110000000D01*
D12*
X190754000Y-75946000D02*
X190754000Y-77724000D01*
X190754000Y-71882000D02*
X190754000Y-70104000D01*
X191770000Y-75438000D02*
X189738000Y-75438000D01*
X191770000Y-71882000D02*
X189738000Y-71882000D01*
X189738000Y-71882000D02*
X189738000Y-75946000D01*
X189738000Y-75946000D02*
X191770000Y-75946000D01*
X191770000Y-75946000D02*
X191770000Y-71882000D01*
X194056000Y-75946000D02*
X194056000Y-77724000D01*
X194056000Y-71882000D02*
X194056000Y-70104000D01*
X195072000Y-75438000D02*
X193040000Y-75438000D01*
X195072000Y-71882000D02*
X193040000Y-71882000D01*
X193040000Y-71882000D02*
X193040000Y-75946000D01*
X193040000Y-75946000D02*
X195072000Y-75946000D01*
X195072000Y-75946000D02*
X195072000Y-71882000D01*
X160020000Y-91186000D02*
X160020000Y-89408000D01*
X160020000Y-95250000D02*
X160020000Y-97028000D01*
X159004000Y-91694000D02*
X161036000Y-91694000D01*
X159004000Y-95250000D02*
X161036000Y-95250000D01*
X161036000Y-95250000D02*
X161036000Y-91186000D01*
X161036000Y-91186000D02*
X159004000Y-91186000D01*
X159004000Y-91186000D02*
X159004000Y-95250000D01*
X194056000Y-63754000D02*
X194056000Y-65532000D01*
X194056000Y-59690000D02*
X194056000Y-57912000D01*
X195072000Y-63246000D02*
X193040000Y-63246000D01*
X195072000Y-59690000D02*
X193040000Y-59690000D01*
X193040000Y-59690000D02*
X193040000Y-63754000D01*
X193040000Y-63754000D02*
X195072000Y-63754000D01*
X195072000Y-63754000D02*
X195072000Y-59690000D01*
X158496000Y-43688000D02*
X156718000Y-43688000D01*
X162560000Y-43688000D02*
X164338000Y-43688000D01*
X159004000Y-44704000D02*
X159004000Y-42672000D01*
X162560000Y-44704000D02*
X162560000Y-42672000D01*
X162560000Y-42672000D02*
X158496000Y-42672000D01*
X158496000Y-42672000D02*
X158496000Y-44704000D01*
X158496000Y-44704000D02*
X162560000Y-44704000D01*
X144878000Y-85188000D02*
X144878000Y-60438000D01*
X150778000Y-85188000D02*
X150778000Y-60438000D01*
X149628000Y-85188000D02*
X149628000Y-86488000D01*
X146028000Y-85188000D02*
X146028000Y-86488000D01*
X146028000Y-86488000D02*
X149628000Y-86488000D01*
X144878000Y-60438000D02*
X150778000Y-60438000D01*
X150778000Y-85188000D02*
X144878000Y-85188000D01*
X197684000Y-66414000D02*
X197684000Y-81414000D01*
X206684000Y-66414000D02*
X206684000Y-81414000D01*
X206684000Y-81414000D02*
X197684000Y-81414000D01*
X206684000Y-66414000D02*
X197684000Y-66414000D01*
X113864000Y-61468000D02*
X112864000Y-61468000D01*
X123864000Y-61468000D02*
X122864000Y-61468000D01*
X122864000Y-62468000D02*
X113864000Y-62468000D01*
X113864000Y-62468000D02*
X113864000Y-60468000D01*
X113864000Y-60468000D02*
X122864000Y-60468000D01*
X122864000Y-60468000D02*
X122864000Y-62468000D01*
X113864000Y-64516000D02*
X112864000Y-64516000D01*
X123864000Y-64516000D02*
X122864000Y-64516000D01*
X122864000Y-65516000D02*
X113864000Y-65516000D01*
X113864000Y-65516000D02*
X113864000Y-63516000D01*
X113864000Y-63516000D02*
X122864000Y-63516000D01*
X122864000Y-63516000D02*
X122864000Y-65516000D01*
X113864000Y-67564000D02*
X112864000Y-67564000D01*
X123864000Y-67564000D02*
X122864000Y-67564000D01*
X122864000Y-68564000D02*
X113864000Y-68564000D01*
X113864000Y-68564000D02*
X113864000Y-66564000D01*
X113864000Y-66564000D02*
X122864000Y-66564000D01*
X122864000Y-66564000D02*
X122864000Y-68564000D01*
X113864000Y-70612000D02*
X112864000Y-70612000D01*
X123864000Y-70612000D02*
X122864000Y-70612000D01*
X122864000Y-71612000D02*
X113864000Y-71612000D01*
X113864000Y-71612000D02*
X113864000Y-69612000D01*
X113864000Y-69612000D02*
X122864000Y-69612000D01*
X122864000Y-69612000D02*
X122864000Y-71612000D01*
X113864000Y-73660000D02*
X112864000Y-73660000D01*
X123864000Y-73660000D02*
X122864000Y-73660000D01*
X122864000Y-74660000D02*
X113864000Y-74660000D01*
X113864000Y-74660000D02*
X113864000Y-72660000D01*
X113864000Y-72660000D02*
X122864000Y-72660000D01*
X122864000Y-72660000D02*
X122864000Y-74660000D01*
X113864000Y-76708000D02*
X112864000Y-76708000D01*
X123864000Y-76708000D02*
X122864000Y-76708000D01*
X122864000Y-77708000D02*
X113864000Y-77708000D01*
X113864000Y-77708000D02*
X113864000Y-75708000D01*
X113864000Y-75708000D02*
X122864000Y-75708000D01*
X122864000Y-75708000D02*
X122864000Y-77708000D01*
X113864000Y-79756000D02*
X112864000Y-79756000D01*
X123864000Y-79756000D02*
X122864000Y-79756000D01*
X122864000Y-80756000D02*
X113864000Y-80756000D01*
X113864000Y-80756000D02*
X113864000Y-78756000D01*
X113864000Y-78756000D02*
X122864000Y-78756000D01*
X122864000Y-78756000D02*
X122864000Y-80756000D01*
X113864000Y-82804000D02*
X112864000Y-82804000D01*
X123864000Y-82804000D02*
X122864000Y-82804000D01*
X122864000Y-83804000D02*
X113864000Y-83804000D01*
X113864000Y-83804000D02*
X113864000Y-81804000D01*
X113864000Y-81804000D02*
X122864000Y-81804000D01*
X122864000Y-81804000D02*
X122864000Y-83804000D01*
X168148000Y-53666000D02*
X168148000Y-52666000D01*
X168148000Y-63666000D02*
X168148000Y-62666000D01*
X167148000Y-62666000D02*
X167148000Y-53666000D01*
X167148000Y-53666000D02*
X169148000Y-53666000D01*
X169148000Y-53666000D02*
X169148000Y-62666000D01*
X169148000Y-62666000D02*
X167148000Y-62666000D01*
X155956000Y-53666000D02*
X155956000Y-52666000D01*
X155956000Y-63666000D02*
X155956000Y-62666000D01*
X154956000Y-62666000D02*
X154956000Y-53666000D01*
X154956000Y-53666000D02*
X156956000Y-53666000D01*
X156956000Y-53666000D02*
X156956000Y-62666000D01*
X156956000Y-62666000D02*
X154956000Y-62666000D01*
X159512000Y-53666000D02*
X159512000Y-52666000D01*
X159512000Y-63666000D02*
X159512000Y-62666000D01*
X158512000Y-62666000D02*
X158512000Y-53666000D01*
X158512000Y-53666000D02*
X160512000Y-53666000D01*
X160512000Y-53666000D02*
X160512000Y-62666000D01*
X160512000Y-62666000D02*
X158512000Y-62666000D01*
X165100000Y-53666000D02*
X165100000Y-52666000D01*
X165100000Y-63666000D02*
X165100000Y-62666000D01*
X164100000Y-62666000D02*
X164100000Y-53666000D01*
X164100000Y-53666000D02*
X166100000Y-53666000D01*
X166100000Y-53666000D02*
X166100000Y-62666000D01*
X166100000Y-62666000D02*
X164100000Y-62666000D01*
X156464000Y-97718000D02*
X156464000Y-98718000D01*
X156464000Y-87718000D02*
X156464000Y-88718000D01*
X157464000Y-88718000D02*
X157464000Y-97718000D01*
X157464000Y-97718000D02*
X155464000Y-97718000D01*
X155464000Y-97718000D02*
X155464000Y-88718000D01*
X155464000Y-88718000D02*
X157464000Y-88718000D01*
X190754000Y-65968000D02*
X190754000Y-66968000D01*
X190754000Y-55968000D02*
X190754000Y-56968000D01*
X191754000Y-56968000D02*
X191754000Y-65968000D01*
X191754000Y-65968000D02*
X189754000Y-65968000D01*
X189754000Y-65968000D02*
X189754000Y-56968000D01*
X189754000Y-56968000D02*
X191754000Y-56968000D01*
X151638000Y-88718000D02*
X151638000Y-87718000D01*
X151638000Y-98718000D02*
X151638000Y-97718000D01*
X150638000Y-97718000D02*
X150638000Y-88718000D01*
X150638000Y-88718000D02*
X152638000Y-88718000D01*
X152638000Y-88718000D02*
X152638000Y-97718000D01*
X152638000Y-97718000D02*
X150638000Y-97718000D01*
D13*
X120573800Y-47315120D02*
X141104620Y-47315120D01*
X141104620Y-47315120D02*
X141104620Y-39552880D01*
X141104620Y-39552880D02*
X120573800Y-39552880D01*
X120573800Y-47315120D02*
X120573800Y-39552880D01*
D12*
X184118000Y-91364000D02*
X184118000Y-79164000D01*
X184118000Y-91364000D02*
X171418000Y-91364000D01*
X171418000Y-91364000D02*
X171418000Y-56464000D01*
X171418000Y-56464000D02*
X184118000Y-56464000D01*
X184118000Y-56464000D02*
X184118000Y-68664000D01*
X184518000Y-79164000D02*
X178568000Y-79164000D01*
X184518000Y-79164000D02*
X184518000Y-68664000D01*
X184518000Y-68664000D02*
X178568000Y-68664000D01*
X178568000Y-68664000D02*
X178568000Y-79164000D01*
X147672000Y-95660000D02*
X135672000Y-95660000D01*
X147672000Y-89760000D02*
X135672000Y-89760000D01*
X147672000Y-90910000D02*
X148972000Y-90910000D01*
X147672000Y-94510000D02*
X148972000Y-94510000D01*
X148972000Y-94510000D02*
X148972000Y-90910000D01*
X135672000Y-95660000D02*
X135672000Y-89760000D01*
X147672000Y-89760000D02*
X147672000Y-95660000D01*
X133858000Y-61468000D02*
X135636000Y-61468000D01*
X129794000Y-61468000D02*
X128016000Y-61468000D01*
X133350000Y-60452000D02*
X133350000Y-62484000D01*
X129794000Y-60452000D02*
X129794000Y-62484000D01*
X129794000Y-62484000D02*
X133858000Y-62484000D01*
X133858000Y-62484000D02*
X133858000Y-60452000D01*
X133858000Y-60452000D02*
X129794000Y-60452000D01*
X133858000Y-64516000D02*
X135636000Y-64516000D01*
X129794000Y-64516000D02*
X128016000Y-64516000D01*
X133350000Y-63500000D02*
X133350000Y-65532000D01*
X129794000Y-63500000D02*
X129794000Y-65532000D01*
X129794000Y-65532000D02*
X133858000Y-65532000D01*
X133858000Y-65532000D02*
X133858000Y-63500000D01*
X133858000Y-63500000D02*
X129794000Y-63500000D01*
X133858000Y-67564000D02*
X135636000Y-67564000D01*
X129794000Y-67564000D02*
X128016000Y-67564000D01*
X133350000Y-66548000D02*
X133350000Y-68580000D01*
X129794000Y-66548000D02*
X129794000Y-68580000D01*
X129794000Y-68580000D02*
X133858000Y-68580000D01*
X133858000Y-68580000D02*
X133858000Y-66548000D01*
X133858000Y-66548000D02*
X129794000Y-66548000D01*
X133858000Y-70612000D02*
X135636000Y-70612000D01*
X129794000Y-70612000D02*
X128016000Y-70612000D01*
X133350000Y-69596000D02*
X133350000Y-71628000D01*
X129794000Y-69596000D02*
X129794000Y-71628000D01*
X129794000Y-71628000D02*
X133858000Y-71628000D01*
X133858000Y-71628000D02*
X133858000Y-69596000D01*
X133858000Y-69596000D02*
X129794000Y-69596000D01*
X133858000Y-73660000D02*
X135636000Y-73660000D01*
X129794000Y-73660000D02*
X128016000Y-73660000D01*
X133350000Y-72644000D02*
X133350000Y-74676000D01*
X129794000Y-72644000D02*
X129794000Y-74676000D01*
X129794000Y-74676000D02*
X133858000Y-74676000D01*
X133858000Y-74676000D02*
X133858000Y-72644000D01*
X133858000Y-72644000D02*
X129794000Y-72644000D01*
X133858000Y-76708000D02*
X135636000Y-76708000D01*
X129794000Y-76708000D02*
X128016000Y-76708000D01*
X133350000Y-75692000D02*
X133350000Y-77724000D01*
X129794000Y-75692000D02*
X129794000Y-77724000D01*
X129794000Y-77724000D02*
X133858000Y-77724000D01*
X133858000Y-77724000D02*
X133858000Y-75692000D01*
X133858000Y-75692000D02*
X129794000Y-75692000D01*
X133858000Y-79756000D02*
X135636000Y-79756000D01*
X129794000Y-79756000D02*
X128016000Y-79756000D01*
X133350000Y-78740000D02*
X133350000Y-80772000D01*
X129794000Y-78740000D02*
X129794000Y-80772000D01*
X129794000Y-80772000D02*
X133858000Y-80772000D01*
X133858000Y-80772000D02*
X133858000Y-78740000D01*
X133858000Y-78740000D02*
X129794000Y-78740000D01*
X133858000Y-82804000D02*
X135636000Y-82804000D01*
X129794000Y-82804000D02*
X128016000Y-82804000D01*
X133350000Y-81788000D02*
X133350000Y-83820000D01*
X129794000Y-81788000D02*
X129794000Y-83820000D01*
X129794000Y-83820000D02*
X133858000Y-83820000D01*
X133858000Y-83820000D02*
X133858000Y-81788000D01*
X133858000Y-81788000D02*
X129794000Y-81788000D01*
X167894000Y-69088000D02*
X169672000Y-69088000D01*
X163830000Y-69088000D02*
X162052000Y-69088000D01*
X163830000Y-68072000D02*
X163830000Y-70104000D01*
X163830000Y-70104000D02*
X167894000Y-70104000D01*
X167894000Y-70104000D02*
X167894000Y-68072000D01*
X167894000Y-68072000D02*
X163830000Y-68072000D01*
X167894000Y-76708000D02*
X169672000Y-76708000D01*
X163830000Y-76708000D02*
X162052000Y-76708000D01*
X163830000Y-75692000D02*
X163830000Y-77724000D01*
X163830000Y-77724000D02*
X167894000Y-77724000D01*
X167894000Y-77724000D02*
X167894000Y-75692000D01*
X167894000Y-75692000D02*
X163830000Y-75692000D01*
X162814000Y-95250000D02*
X162814000Y-97028000D01*
X162814000Y-91186000D02*
X162814000Y-89408000D01*
X163830000Y-91186000D02*
X161798000Y-91186000D01*
X161798000Y-91186000D02*
X161798000Y-95250000D01*
X161798000Y-95250000D02*
X163830000Y-95250000D01*
X163830000Y-95250000D02*
X163830000Y-91186000D01*
X159004000Y-70866000D02*
X159004000Y-69088000D01*
X159004000Y-74930000D02*
X159004000Y-76708000D01*
X157988000Y-74930000D02*
X160020000Y-74930000D01*
X160020000Y-74930000D02*
X160020000Y-70866000D01*
X160020000Y-70866000D02*
X157988000Y-70866000D01*
X157988000Y-70866000D02*
X157988000Y-74930000D01*
D14*
X189297429Y-74064000D02*
X189340286Y-74106857D01*
X189383143Y-74235428D01*
X189383143Y-74321142D01*
X189340286Y-74449714D01*
X189254571Y-74535428D01*
X189168857Y-74578285D01*
X188997429Y-74621142D01*
X188868857Y-74621142D01*
X188697429Y-74578285D01*
X188611714Y-74535428D01*
X188526000Y-74449714D01*
X188483143Y-74321142D01*
X188483143Y-74235428D01*
X188526000Y-74106857D01*
X188568857Y-74064000D01*
X189383143Y-73206857D02*
X189383143Y-73721142D01*
X189383143Y-73464000D02*
X188483143Y-73464000D01*
X188611714Y-73549714D01*
X188697429Y-73635428D01*
X188740286Y-73721142D01*
X196377429Y-74064000D02*
X196420286Y-74106857D01*
X196463143Y-74235428D01*
X196463143Y-74321142D01*
X196420286Y-74449714D01*
X196334571Y-74535428D01*
X196248857Y-74578285D01*
X196077429Y-74621142D01*
X195948857Y-74621142D01*
X195777429Y-74578285D01*
X195691714Y-74535428D01*
X195606000Y-74449714D01*
X195563143Y-74321142D01*
X195563143Y-74235428D01*
X195606000Y-74106857D01*
X195648857Y-74064000D01*
X195648857Y-73721142D02*
X195606000Y-73678285D01*
X195563143Y-73592571D01*
X195563143Y-73378285D01*
X195606000Y-73292571D01*
X195648857Y-73249714D01*
X195734571Y-73206857D01*
X195820286Y-73206857D01*
X195948857Y-73249714D01*
X196463143Y-73764000D01*
X196463143Y-73206857D01*
X160341429Y-99464000D02*
X160384286Y-99506857D01*
X160427143Y-99635428D01*
X160427143Y-99721142D01*
X160384286Y-99849714D01*
X160298571Y-99935428D01*
X160212857Y-99978285D01*
X160041429Y-100021142D01*
X159912857Y-100021142D01*
X159741429Y-99978285D01*
X159655714Y-99935428D01*
X159570000Y-99849714D01*
X159527143Y-99721142D01*
X159527143Y-99635428D01*
X159570000Y-99506857D01*
X159612857Y-99464000D01*
X159527143Y-99164000D02*
X159527143Y-98606857D01*
X159870000Y-98906857D01*
X159870000Y-98778285D01*
X159912857Y-98692571D01*
X159955714Y-98649714D01*
X160041429Y-98606857D01*
X160255714Y-98606857D01*
X160341429Y-98649714D01*
X160384286Y-98692571D01*
X160427143Y-98778285D01*
X160427143Y-99035428D01*
X160384286Y-99121142D01*
X160341429Y-99164000D01*
X196463143Y-62386285D02*
X195563143Y-62386285D01*
X195563143Y-62172000D01*
X195606000Y-62043428D01*
X195691714Y-61957714D01*
X195777429Y-61914857D01*
X195948857Y-61872000D01*
X196077429Y-61872000D01*
X196248857Y-61914857D01*
X196334571Y-61957714D01*
X196420286Y-62043428D01*
X196463143Y-62172000D01*
X196463143Y-62386285D01*
X196463143Y-61014857D02*
X196463143Y-61529142D01*
X196463143Y-61272000D02*
X195563143Y-61272000D01*
X195691714Y-61357714D01*
X195777429Y-61443428D01*
X195820286Y-61529142D01*
X159863715Y-46095143D02*
X159863715Y-45195143D01*
X160078000Y-45195143D01*
X160206572Y-45238000D01*
X160292286Y-45323714D01*
X160335143Y-45409429D01*
X160378000Y-45580857D01*
X160378000Y-45709429D01*
X160335143Y-45880857D01*
X160292286Y-45966571D01*
X160206572Y-46052286D01*
X160078000Y-46095143D01*
X159863715Y-46095143D01*
X160720858Y-45280857D02*
X160763715Y-45238000D01*
X160849429Y-45195143D01*
X161063715Y-45195143D01*
X161149429Y-45238000D01*
X161192286Y-45280857D01*
X161235143Y-45366571D01*
X161235143Y-45452286D01*
X161192286Y-45580857D01*
X160678000Y-46095143D01*
X161235143Y-46095143D01*
D10*
X143200381Y-73874190D02*
X142200381Y-73874190D01*
X143105143Y-72826571D02*
X143152762Y-72874190D01*
X143200381Y-73017047D01*
X143200381Y-73112285D01*
X143152762Y-73255143D01*
X143057524Y-73350381D01*
X142962286Y-73398000D01*
X142771810Y-73445619D01*
X142628952Y-73445619D01*
X142438476Y-73398000D01*
X142343238Y-73350381D01*
X142248000Y-73255143D01*
X142200381Y-73112285D01*
X142200381Y-73017047D01*
X142248000Y-72874190D01*
X142295619Y-72826571D01*
X143200381Y-71874190D02*
X143200381Y-72445619D01*
X143200381Y-72159905D02*
X142200381Y-72159905D01*
X142343238Y-72255143D01*
X142438476Y-72350381D01*
X142486095Y-72445619D01*
X208136381Y-74652095D02*
X207136381Y-74652095D01*
X207136381Y-74271142D01*
X207184000Y-74175904D01*
X207231619Y-74128285D01*
X207326857Y-74080666D01*
X207469714Y-74080666D01*
X207564952Y-74128285D01*
X207612571Y-74175904D01*
X207660190Y-74271142D01*
X207660190Y-74652095D01*
X208136381Y-73128285D02*
X208136381Y-73699714D01*
X208136381Y-73414000D02*
X207136381Y-73414000D01*
X207279238Y-73509238D01*
X207374476Y-73604476D01*
X207422095Y-73699714D01*
X109815334Y-61920381D02*
X109482000Y-61444190D01*
X109243905Y-61920381D02*
X109243905Y-60920381D01*
X109624858Y-60920381D01*
X109720096Y-60968000D01*
X109767715Y-61015619D01*
X109815334Y-61110857D01*
X109815334Y-61253714D01*
X109767715Y-61348952D01*
X109720096Y-61396571D01*
X109624858Y-61444190D01*
X109243905Y-61444190D01*
X110767715Y-61920381D02*
X110196286Y-61920381D01*
X110482000Y-61920381D02*
X110482000Y-60920381D01*
X110386762Y-61063238D01*
X110291524Y-61158476D01*
X110196286Y-61206095D01*
X109815334Y-64968381D02*
X109482000Y-64492190D01*
X109243905Y-64968381D02*
X109243905Y-63968381D01*
X109624858Y-63968381D01*
X109720096Y-64016000D01*
X109767715Y-64063619D01*
X109815334Y-64158857D01*
X109815334Y-64301714D01*
X109767715Y-64396952D01*
X109720096Y-64444571D01*
X109624858Y-64492190D01*
X109243905Y-64492190D01*
X110196286Y-64063619D02*
X110243905Y-64016000D01*
X110339143Y-63968381D01*
X110577239Y-63968381D01*
X110672477Y-64016000D01*
X110720096Y-64063619D01*
X110767715Y-64158857D01*
X110767715Y-64254095D01*
X110720096Y-64396952D01*
X110148667Y-64968381D01*
X110767715Y-64968381D01*
X109815334Y-68016381D02*
X109482000Y-67540190D01*
X109243905Y-68016381D02*
X109243905Y-67016381D01*
X109624858Y-67016381D01*
X109720096Y-67064000D01*
X109767715Y-67111619D01*
X109815334Y-67206857D01*
X109815334Y-67349714D01*
X109767715Y-67444952D01*
X109720096Y-67492571D01*
X109624858Y-67540190D01*
X109243905Y-67540190D01*
X110148667Y-67016381D02*
X110767715Y-67016381D01*
X110434381Y-67397333D01*
X110577239Y-67397333D01*
X110672477Y-67444952D01*
X110720096Y-67492571D01*
X110767715Y-67587810D01*
X110767715Y-67825905D01*
X110720096Y-67921143D01*
X110672477Y-67968762D01*
X110577239Y-68016381D01*
X110291524Y-68016381D01*
X110196286Y-67968762D01*
X110148667Y-67921143D01*
X109815334Y-71064381D02*
X109482000Y-70588190D01*
X109243905Y-71064381D02*
X109243905Y-70064381D01*
X109624858Y-70064381D01*
X109720096Y-70112000D01*
X109767715Y-70159619D01*
X109815334Y-70254857D01*
X109815334Y-70397714D01*
X109767715Y-70492952D01*
X109720096Y-70540571D01*
X109624858Y-70588190D01*
X109243905Y-70588190D01*
X110672477Y-70397714D02*
X110672477Y-71064381D01*
X110434381Y-70016762D02*
X110196286Y-70731048D01*
X110815334Y-70731048D01*
X109815334Y-74112381D02*
X109482000Y-73636190D01*
X109243905Y-74112381D02*
X109243905Y-73112381D01*
X109624858Y-73112381D01*
X109720096Y-73160000D01*
X109767715Y-73207619D01*
X109815334Y-73302857D01*
X109815334Y-73445714D01*
X109767715Y-73540952D01*
X109720096Y-73588571D01*
X109624858Y-73636190D01*
X109243905Y-73636190D01*
X110720096Y-73112381D02*
X110243905Y-73112381D01*
X110196286Y-73588571D01*
X110243905Y-73540952D01*
X110339143Y-73493333D01*
X110577239Y-73493333D01*
X110672477Y-73540952D01*
X110720096Y-73588571D01*
X110767715Y-73683810D01*
X110767715Y-73921905D01*
X110720096Y-74017143D01*
X110672477Y-74064762D01*
X110577239Y-74112381D01*
X110339143Y-74112381D01*
X110243905Y-74064762D01*
X110196286Y-74017143D01*
X109815334Y-77160381D02*
X109482000Y-76684190D01*
X109243905Y-77160381D02*
X109243905Y-76160381D01*
X109624858Y-76160381D01*
X109720096Y-76208000D01*
X109767715Y-76255619D01*
X109815334Y-76350857D01*
X109815334Y-76493714D01*
X109767715Y-76588952D01*
X109720096Y-76636571D01*
X109624858Y-76684190D01*
X109243905Y-76684190D01*
X110672477Y-76160381D02*
X110482000Y-76160381D01*
X110386762Y-76208000D01*
X110339143Y-76255619D01*
X110243905Y-76398476D01*
X110196286Y-76588952D01*
X110196286Y-76969905D01*
X110243905Y-77065143D01*
X110291524Y-77112762D01*
X110386762Y-77160381D01*
X110577239Y-77160381D01*
X110672477Y-77112762D01*
X110720096Y-77065143D01*
X110767715Y-76969905D01*
X110767715Y-76731810D01*
X110720096Y-76636571D01*
X110672477Y-76588952D01*
X110577239Y-76541333D01*
X110386762Y-76541333D01*
X110291524Y-76588952D01*
X110243905Y-76636571D01*
X110196286Y-76731810D01*
X109815334Y-80208381D02*
X109482000Y-79732190D01*
X109243905Y-80208381D02*
X109243905Y-79208381D01*
X109624858Y-79208381D01*
X109720096Y-79256000D01*
X109767715Y-79303619D01*
X109815334Y-79398857D01*
X109815334Y-79541714D01*
X109767715Y-79636952D01*
X109720096Y-79684571D01*
X109624858Y-79732190D01*
X109243905Y-79732190D01*
X110148667Y-79208381D02*
X110815334Y-79208381D01*
X110386762Y-80208381D01*
X109815334Y-83256381D02*
X109482000Y-82780190D01*
X109243905Y-83256381D02*
X109243905Y-82256381D01*
X109624858Y-82256381D01*
X109720096Y-82304000D01*
X109767715Y-82351619D01*
X109815334Y-82446857D01*
X109815334Y-82589714D01*
X109767715Y-82684952D01*
X109720096Y-82732571D01*
X109624858Y-82780190D01*
X109243905Y-82780190D01*
X110386762Y-82684952D02*
X110291524Y-82637333D01*
X110243905Y-82589714D01*
X110196286Y-82494476D01*
X110196286Y-82446857D01*
X110243905Y-82351619D01*
X110291524Y-82304000D01*
X110386762Y-82256381D01*
X110577239Y-82256381D01*
X110672477Y-82304000D01*
X110720096Y-82351619D01*
X110767715Y-82446857D01*
X110767715Y-82494476D01*
X110720096Y-82589714D01*
X110672477Y-82637333D01*
X110577239Y-82684952D01*
X110386762Y-82684952D01*
X110291524Y-82732571D01*
X110243905Y-82780190D01*
X110196286Y-82875429D01*
X110196286Y-83065905D01*
X110243905Y-83161143D01*
X110291524Y-83208762D01*
X110386762Y-83256381D01*
X110577239Y-83256381D01*
X110672477Y-83208762D01*
X110720096Y-83161143D01*
X110767715Y-83065905D01*
X110767715Y-82875429D01*
X110720096Y-82780190D01*
X110672477Y-82732571D01*
X110577239Y-82684952D01*
X170632381Y-58332666D02*
X170156190Y-58666000D01*
X170632381Y-58904095D02*
X169632381Y-58904095D01*
X169632381Y-58523142D01*
X169680000Y-58427904D01*
X169727619Y-58380285D01*
X169822857Y-58332666D01*
X169965714Y-58332666D01*
X170060952Y-58380285D01*
X170108571Y-58427904D01*
X170156190Y-58523142D01*
X170156190Y-58904095D01*
X170632381Y-57856476D02*
X170632381Y-57666000D01*
X170584762Y-57570761D01*
X170537143Y-57523142D01*
X170394286Y-57427904D01*
X170203810Y-57380285D01*
X169822857Y-57380285D01*
X169727619Y-57427904D01*
X169680000Y-57475523D01*
X169632381Y-57570761D01*
X169632381Y-57761238D01*
X169680000Y-57856476D01*
X169727619Y-57904095D01*
X169822857Y-57951714D01*
X170060952Y-57951714D01*
X170156190Y-57904095D01*
X170203810Y-57856476D01*
X170251429Y-57761238D01*
X170251429Y-57570761D01*
X170203810Y-57475523D01*
X170156190Y-57427904D01*
X170060952Y-57380285D01*
X154408381Y-58808857D02*
X153932190Y-59142191D01*
X154408381Y-59380286D02*
X153408381Y-59380286D01*
X153408381Y-58999333D01*
X153456000Y-58904095D01*
X153503619Y-58856476D01*
X153598857Y-58808857D01*
X153741714Y-58808857D01*
X153836952Y-58856476D01*
X153884571Y-58904095D01*
X153932190Y-58999333D01*
X153932190Y-59380286D01*
X154408381Y-57856476D02*
X154408381Y-58427905D01*
X154408381Y-58142191D02*
X153408381Y-58142191D01*
X153551238Y-58237429D01*
X153646476Y-58332667D01*
X153694095Y-58427905D01*
X153408381Y-57237429D02*
X153408381Y-57142190D01*
X153456000Y-57046952D01*
X153503619Y-56999333D01*
X153598857Y-56951714D01*
X153789333Y-56904095D01*
X154027429Y-56904095D01*
X154217905Y-56951714D01*
X154313143Y-56999333D01*
X154360762Y-57046952D01*
X154408381Y-57142190D01*
X154408381Y-57237429D01*
X154360762Y-57332667D01*
X154313143Y-57380286D01*
X154217905Y-57427905D01*
X154027429Y-57475524D01*
X153789333Y-57475524D01*
X153598857Y-57427905D01*
X153503619Y-57380286D01*
X153456000Y-57332667D01*
X153408381Y-57237429D01*
X161742381Y-56014857D02*
X161266190Y-56348191D01*
X161742381Y-56586286D02*
X160742381Y-56586286D01*
X160742381Y-56205333D01*
X160790000Y-56110095D01*
X160837619Y-56062476D01*
X160932857Y-56014857D01*
X161075714Y-56014857D01*
X161170952Y-56062476D01*
X161218571Y-56110095D01*
X161266190Y-56205333D01*
X161266190Y-56586286D01*
X161742381Y-55062476D02*
X161742381Y-55633905D01*
X161742381Y-55348191D02*
X160742381Y-55348191D01*
X160885238Y-55443429D01*
X160980476Y-55538667D01*
X161028095Y-55633905D01*
X161742381Y-54110095D02*
X161742381Y-54681524D01*
X161742381Y-54395810D02*
X160742381Y-54395810D01*
X160885238Y-54491048D01*
X160980476Y-54586286D01*
X161028095Y-54681524D01*
X163774381Y-61856857D02*
X163298190Y-62190191D01*
X163774381Y-62428286D02*
X162774381Y-62428286D01*
X162774381Y-62047333D01*
X162822000Y-61952095D01*
X162869619Y-61904476D01*
X162964857Y-61856857D01*
X163107714Y-61856857D01*
X163202952Y-61904476D01*
X163250571Y-61952095D01*
X163298190Y-62047333D01*
X163298190Y-62428286D01*
X163774381Y-60904476D02*
X163774381Y-61475905D01*
X163774381Y-61190191D02*
X162774381Y-61190191D01*
X162917238Y-61285429D01*
X163012476Y-61380667D01*
X163060095Y-61475905D01*
X162869619Y-60523524D02*
X162822000Y-60475905D01*
X162774381Y-60380667D01*
X162774381Y-60142571D01*
X162822000Y-60047333D01*
X162869619Y-59999714D01*
X162964857Y-59952095D01*
X163060095Y-59952095D01*
X163202952Y-59999714D01*
X163774381Y-60571143D01*
X163774381Y-59952095D01*
X155138381Y-93860857D02*
X154662190Y-94194191D01*
X155138381Y-94432286D02*
X154138381Y-94432286D01*
X154138381Y-94051333D01*
X154186000Y-93956095D01*
X154233619Y-93908476D01*
X154328857Y-93860857D01*
X154471714Y-93860857D01*
X154566952Y-93908476D01*
X154614571Y-93956095D01*
X154662190Y-94051333D01*
X154662190Y-94432286D01*
X155138381Y-92908476D02*
X155138381Y-93479905D01*
X155138381Y-93194191D02*
X154138381Y-93194191D01*
X154281238Y-93289429D01*
X154376476Y-93384667D01*
X154424095Y-93479905D01*
X154138381Y-92575143D02*
X154138381Y-91956095D01*
X154519333Y-92289429D01*
X154519333Y-92146571D01*
X154566952Y-92051333D01*
X154614571Y-92003714D01*
X154709810Y-91956095D01*
X154947905Y-91956095D01*
X155043143Y-92003714D01*
X155090762Y-92051333D01*
X155138381Y-92146571D01*
X155138381Y-92432286D01*
X155090762Y-92527524D01*
X155043143Y-92575143D01*
X188920381Y-62110857D02*
X188444190Y-62444191D01*
X188920381Y-62682286D02*
X187920381Y-62682286D01*
X187920381Y-62301333D01*
X187968000Y-62206095D01*
X188015619Y-62158476D01*
X188110857Y-62110857D01*
X188253714Y-62110857D01*
X188348952Y-62158476D01*
X188396571Y-62206095D01*
X188444190Y-62301333D01*
X188444190Y-62682286D01*
X188920381Y-61158476D02*
X188920381Y-61729905D01*
X188920381Y-61444191D02*
X187920381Y-61444191D01*
X188063238Y-61539429D01*
X188158476Y-61634667D01*
X188206095Y-61729905D01*
X188253714Y-60301333D02*
X188920381Y-60301333D01*
X187872762Y-60539429D02*
X188587048Y-60777524D01*
X188587048Y-60158476D01*
X150312381Y-97162857D02*
X149836190Y-97496191D01*
X150312381Y-97734286D02*
X149312381Y-97734286D01*
X149312381Y-97353333D01*
X149360000Y-97258095D01*
X149407619Y-97210476D01*
X149502857Y-97162857D01*
X149645714Y-97162857D01*
X149740952Y-97210476D01*
X149788571Y-97258095D01*
X149836190Y-97353333D01*
X149836190Y-97734286D01*
X150312381Y-96210476D02*
X150312381Y-96781905D01*
X150312381Y-96496191D02*
X149312381Y-96496191D01*
X149455238Y-96591429D01*
X149550476Y-96686667D01*
X149598095Y-96781905D01*
X149312381Y-95305714D02*
X149312381Y-95781905D01*
X149788571Y-95829524D01*
X149740952Y-95781905D01*
X149693333Y-95686667D01*
X149693333Y-95448571D01*
X149740952Y-95353333D01*
X149788571Y-95305714D01*
X149883810Y-95258095D01*
X150121905Y-95258095D01*
X150217143Y-95305714D01*
X150264762Y-95353333D01*
X150312381Y-95448571D01*
X150312381Y-95686667D01*
X150264762Y-95781905D01*
X150217143Y-95829524D01*
D15*
X130598333Y-48027167D02*
X131191000Y-48916167D01*
X131191000Y-48027167D02*
X130598333Y-48916167D01*
X131995333Y-48916167D02*
X131487333Y-48916167D01*
X131741333Y-48916167D02*
X131741333Y-48027167D01*
X131656667Y-48154167D01*
X131572000Y-48238833D01*
X131487333Y-48281167D01*
D10*
X186126381Y-90638190D02*
X185126381Y-90638190D01*
X186031143Y-89590571D02*
X186078762Y-89638190D01*
X186126381Y-89781047D01*
X186126381Y-89876285D01*
X186078762Y-90019143D01*
X185983524Y-90114381D01*
X185888286Y-90162000D01*
X185697810Y-90209619D01*
X185554952Y-90209619D01*
X185364476Y-90162000D01*
X185269238Y-90114381D01*
X185174000Y-90019143D01*
X185126381Y-89876285D01*
X185126381Y-89781047D01*
X185174000Y-89638190D01*
X185221619Y-89590571D01*
X185221619Y-89209619D02*
X185174000Y-89162000D01*
X185126381Y-89066762D01*
X185126381Y-88828666D01*
X185174000Y-88733428D01*
X185221619Y-88685809D01*
X185316857Y-88638190D01*
X185412095Y-88638190D01*
X185554952Y-88685809D01*
X186126381Y-89257238D01*
X186126381Y-88638190D01*
X133024667Y-92162381D02*
X133024667Y-92876667D01*
X132977047Y-93019524D01*
X132881809Y-93114762D01*
X132738952Y-93162381D01*
X132643714Y-93162381D01*
X133500857Y-93162381D02*
X133500857Y-92162381D01*
X133881810Y-92162381D01*
X133977048Y-92210000D01*
X134024667Y-92257619D01*
X134072286Y-92352857D01*
X134072286Y-92495714D01*
X134024667Y-92590952D01*
X133977048Y-92638571D01*
X133881810Y-92686190D01*
X133500857Y-92686190D01*
X135024667Y-93162381D02*
X134453238Y-93162381D01*
X134738952Y-93162381D02*
X134738952Y-92162381D01*
X134643714Y-92305238D01*
X134548476Y-92400476D01*
X134453238Y-92448095D01*
D14*
X137518000Y-61875143D02*
X137089429Y-61875143D01*
X137089429Y-60975143D01*
X138289428Y-61875143D02*
X137775143Y-61875143D01*
X138032285Y-61875143D02*
X138032285Y-60975143D01*
X137946571Y-61103714D01*
X137860857Y-61189429D01*
X137775143Y-61232286D01*
X137518000Y-64923143D02*
X137089429Y-64923143D01*
X137089429Y-64023143D01*
X137775143Y-64108857D02*
X137818000Y-64066000D01*
X137903714Y-64023143D01*
X138118000Y-64023143D01*
X138203714Y-64066000D01*
X138246571Y-64108857D01*
X138289428Y-64194571D01*
X138289428Y-64280286D01*
X138246571Y-64408857D01*
X137732285Y-64923143D01*
X138289428Y-64923143D01*
X137518000Y-67971143D02*
X137089429Y-67971143D01*
X137089429Y-67071143D01*
X137732285Y-67071143D02*
X138289428Y-67071143D01*
X137989428Y-67414000D01*
X138118000Y-67414000D01*
X138203714Y-67456857D01*
X138246571Y-67499714D01*
X138289428Y-67585429D01*
X138289428Y-67799714D01*
X138246571Y-67885429D01*
X138203714Y-67928286D01*
X138118000Y-67971143D01*
X137860857Y-67971143D01*
X137775143Y-67928286D01*
X137732285Y-67885429D01*
X137518000Y-71019143D02*
X137089429Y-71019143D01*
X137089429Y-70119143D01*
X138203714Y-70419143D02*
X138203714Y-71019143D01*
X137989428Y-70076286D02*
X137775143Y-70719143D01*
X138332285Y-70719143D01*
X137518000Y-74067143D02*
X137089429Y-74067143D01*
X137089429Y-73167143D01*
X138246571Y-73167143D02*
X137818000Y-73167143D01*
X137775143Y-73595714D01*
X137818000Y-73552857D01*
X137903714Y-73510000D01*
X138118000Y-73510000D01*
X138203714Y-73552857D01*
X138246571Y-73595714D01*
X138289428Y-73681429D01*
X138289428Y-73895714D01*
X138246571Y-73981429D01*
X138203714Y-74024286D01*
X138118000Y-74067143D01*
X137903714Y-74067143D01*
X137818000Y-74024286D01*
X137775143Y-73981429D01*
X137518000Y-77115143D02*
X137089429Y-77115143D01*
X137089429Y-76215143D01*
X138203714Y-76215143D02*
X138032285Y-76215143D01*
X137946571Y-76258000D01*
X137903714Y-76300857D01*
X137818000Y-76429429D01*
X137775143Y-76600857D01*
X137775143Y-76943714D01*
X137818000Y-77029429D01*
X137860857Y-77072286D01*
X137946571Y-77115143D01*
X138118000Y-77115143D01*
X138203714Y-77072286D01*
X138246571Y-77029429D01*
X138289428Y-76943714D01*
X138289428Y-76729429D01*
X138246571Y-76643714D01*
X138203714Y-76600857D01*
X138118000Y-76558000D01*
X137946571Y-76558000D01*
X137860857Y-76600857D01*
X137818000Y-76643714D01*
X137775143Y-76729429D01*
X137518000Y-80163143D02*
X137089429Y-80163143D01*
X137089429Y-79263143D01*
X137732285Y-79263143D02*
X138332285Y-79263143D01*
X137946571Y-80163143D01*
X137518000Y-83211143D02*
X137089429Y-83211143D01*
X137089429Y-82311143D01*
X137946571Y-82696857D02*
X137860857Y-82654000D01*
X137818000Y-82611143D01*
X137775143Y-82525429D01*
X137775143Y-82482571D01*
X137818000Y-82396857D01*
X137860857Y-82354000D01*
X137946571Y-82311143D01*
X138118000Y-82311143D01*
X138203714Y-82354000D01*
X138246571Y-82396857D01*
X138289428Y-82482571D01*
X138289428Y-82525429D01*
X138246571Y-82611143D01*
X138203714Y-82654000D01*
X138118000Y-82696857D01*
X137946571Y-82696857D01*
X137860857Y-82739714D01*
X137818000Y-82782571D01*
X137775143Y-82868286D01*
X137775143Y-83039714D01*
X137818000Y-83125429D01*
X137860857Y-83168286D01*
X137946571Y-83211143D01*
X138118000Y-83211143D01*
X138203714Y-83168286D01*
X138246571Y-83125429D01*
X138289428Y-83039714D01*
X138289428Y-82868286D01*
X138246571Y-82782571D01*
X138203714Y-82739714D01*
X138118000Y-82696857D01*
X165712000Y-67409429D02*
X165669143Y-67452286D01*
X165540572Y-67495143D01*
X165454858Y-67495143D01*
X165326286Y-67452286D01*
X165240572Y-67366571D01*
X165197715Y-67280857D01*
X165154858Y-67109429D01*
X165154858Y-66980857D01*
X165197715Y-66809429D01*
X165240572Y-66723714D01*
X165326286Y-66638000D01*
X165454858Y-66595143D01*
X165540572Y-66595143D01*
X165669143Y-66638000D01*
X165712000Y-66680857D01*
X166483429Y-66895143D02*
X166483429Y-67495143D01*
X166269143Y-66552286D02*
X166054858Y-67195143D01*
X166612000Y-67195143D01*
X165712000Y-75029429D02*
X165669143Y-75072286D01*
X165540572Y-75115143D01*
X165454858Y-75115143D01*
X165326286Y-75072286D01*
X165240572Y-74986571D01*
X165197715Y-74900857D01*
X165154858Y-74729429D01*
X165154858Y-74600857D01*
X165197715Y-74429429D01*
X165240572Y-74343714D01*
X165326286Y-74258000D01*
X165454858Y-74215143D01*
X165540572Y-74215143D01*
X165669143Y-74258000D01*
X165712000Y-74300857D01*
X166526286Y-74215143D02*
X166097715Y-74215143D01*
X166054858Y-74643714D01*
X166097715Y-74600857D01*
X166183429Y-74558000D01*
X166397715Y-74558000D01*
X166483429Y-74600857D01*
X166526286Y-74643714D01*
X166569143Y-74729429D01*
X166569143Y-74943714D01*
X166526286Y-75029429D01*
X166483429Y-75072286D01*
X166397715Y-75115143D01*
X166183429Y-75115143D01*
X166097715Y-75072286D01*
X166054858Y-75029429D01*
X163135429Y-99464000D02*
X163178286Y-99506857D01*
X163221143Y-99635428D01*
X163221143Y-99721142D01*
X163178286Y-99849714D01*
X163092571Y-99935428D01*
X163006857Y-99978285D01*
X162835429Y-100021142D01*
X162706857Y-100021142D01*
X162535429Y-99978285D01*
X162449714Y-99935428D01*
X162364000Y-99849714D01*
X162321143Y-99721142D01*
X162321143Y-99635428D01*
X162364000Y-99506857D01*
X162406857Y-99464000D01*
X162321143Y-98692571D02*
X162321143Y-98864000D01*
X162364000Y-98949714D01*
X162406857Y-98992571D01*
X162535429Y-99078285D01*
X162706857Y-99121142D01*
X163049714Y-99121142D01*
X163135429Y-99078285D01*
X163178286Y-99035428D01*
X163221143Y-98949714D01*
X163221143Y-98778285D01*
X163178286Y-98692571D01*
X163135429Y-98649714D01*
X163049714Y-98606857D01*
X162835429Y-98606857D01*
X162749714Y-98649714D01*
X162706857Y-98692571D01*
X162664000Y-98778285D01*
X162664000Y-98949714D01*
X162706857Y-99035428D01*
X162749714Y-99078285D01*
X162835429Y-99121142D01*
X156982571Y-73326572D02*
X157411143Y-73326572D01*
X156511143Y-73626572D02*
X156982571Y-73326572D01*
X156511143Y-73026572D01*
X157411143Y-72255143D02*
X157411143Y-72769428D01*
X157411143Y-72512286D02*
X156511143Y-72512286D01*
X156639714Y-72598000D01*
X156725429Y-72683714D01*
X156768286Y-72769428D01*
M02*
